HIERARCHY
ROOT Hips
{
  OFFSET 365.14 88.179 197.519
  CHANNELS 6 Xposition Yposition Zposition Zrotation Xrotation Yrotation
  JOINT RightUpLeg
  {
    OFFSET -9.25084 -1.53971 -0.0324706
    CHANNELS 3 Zrotation Xrotation Yrotation
    JOINT RightLeg
    {
      OFFSET 0.0147984 -41.8767 0.0743683
      CHANNELS 3 Zrotation Xrotation Yrotation
      JOINT RightFoot
      {
        OFFSET 0.58129 -42.7665 -0.0966173
        CHANNELS 3 Zrotation Xrotation Yrotation
        End Site
        {
          OFFSET 0 -7.69 17.5
        }
      }
    }
  }
  JOINT LeftUpLeg
  {
    OFFSET 9.27183 -1.63567 0.0208533
    CHANNELS 3 Zrotation Xrotation Yrotation
    JOINT LeftLeg
    {
      OFFSET 0.0380064 -41.894 -0.0332375
      CHANNELS 3 Zrotation Xrotation Yrotation
      JOINT LeftFoot
      {
        OFFSET -0.00137207 -40.7578 0.276477
        CHANNELS 3 Zrotation Xrotation Yrotation
        End Site
        {
          OFFSET 0 -7.69 17.5
        }
      }
    }
  }
  JOINT Spine
  {
    OFFSET 0.0273715 14.2953 0.0132618
    CHANNELS 3 Zrotation Xrotation Yrotation
    JOINT Spine1
    {
      OFFSET 0.0356242 9.71545 0.0178671
      CHANNELS 3 Zrotation Xrotation Yrotation
      JOINT Spine2
      {
        OFFSET 0.0275401 10.1205 0.00234803
        CHANNELS 3 Zrotation Xrotation Yrotation
        JOINT Spine3
        {
          OFFSET 0.0388833 9.71499 0.00573168
          CHANNELS 3 Zrotation Xrotation Yrotation
          JOINT Neck
          {
            OFFSET 0.0812761 10.3796 0.11061
            CHANNELS 3 Zrotation Xrotation Yrotation
            JOINT Head
            {
              OFFSET 0.0694951 9.4737 0.0873993
              CHANNELS 3 Zrotation Xrotation Yrotation
              End Site
              {
                OFFSET 0 15.95 0
              }
            }
          }
          JOINT RightShoulder
          {
            OFFSET -3.16911 6.92878 0.0176909
            CHANNELS 3 Zrotation Xrotation Yrotation
            JOINT RightArm
            {
              OFFSET -12.7939 0.0472484 0.0511932
              CHANNELS 3 Zrotation Xrotation Yrotation
              JOINT RightForeArm
              {
                OFFSET -26.5086 -0.00989181 0.0576382
                CHANNELS 3 Zrotation Xrotation Yrotation
                JOINT RightHand
                {
                  OFFSET -26.0357 0.339815 -0.212656
                  CHANNELS 3 Zrotation Xrotation Yrotation
                  JOINT RightHandThumb1
                  {
                    OFFSET -2.48905 0.190105 3.12053
                    CHANNELS 3 Zrotation Xrotation Yrotation
                    JOINT RightHandThumb2
                    {
                      OFFSET -3.68274 0 0
                      CHANNELS 3 Zrotation Xrotation Yrotation
                      JOINT RightHandThumb3
                      {
                        OFFSET -2.55832 0 0
                        CHANNELS 3 Zrotation Xrotation Yrotation
                        End Site
                        {
                          OFFSET -2.194 0 0
                        }
                      }
                    }
                  }
                  JOINT RightInHandIndex
                  {
                    OFFSET -3.22368 0.508421 1.97842
                    CHANNELS 3 Zrotation Xrotation Yrotation
                    JOINT RightHandIndex1
                    {
                      OFFSET -5.21684 -0.091368 0.999158
                      CHANNELS 3 Zrotation Xrotation Yrotation
                      JOINT RightHandIndex2
                      {
                        OFFSET -3.61937 0 0
                        CHANNELS 3 Zrotation Xrotation Yrotation
                        JOINT RightHandIndex3
                        {
                          OFFSET -2.0521 0 0
                          CHANNELS 3 Zrotation Xrotation Yrotation
                          End Site
                          {
                            OFFSET -1.805 0 0
                          }
                        }
                      }
                    }
                  }
                  JOINT RightInHandMiddle
                  {
                    OFFSET -3.38211 0.517263 0.756737
                    CHANNELS 3 Zrotation Xrotation Yrotation
                    JOINT RightHandMiddle1
                    {
                      OFFSET -5.17411 -0.084 0.313895
                      CHANNELS 3 Zrotation Xrotation Yrotation
                      JOINT RightHandMiddle2
                      {
                        OFFSET -3.94947 0 0
                        CHANNELS 3 Zrotation Xrotation Yrotation
                        JOINT RightHandMiddle3
                        {
                          OFFSET -2.47579 0 0
                          CHANNELS 3 Zrotation Xrotation Yrotation
                          End Site
                          {
                            OFFSET -1.975 0 0
                          }
                        }
                      }
                    }
                  }
                  JOINT RightInHandRing
                  {
                    OFFSET -3.36516 0.537895 -0.128947
                    CHANNELS 3 Zrotation Xrotation Yrotation
                    JOINT RightHandRing1
                    {
                      OFFSET -4.63474 -0.022105 -0.478947
                      CHANNELS 3 Zrotation Xrotation Yrotation
                      JOINT RightHandRing2
                      {
                        OFFSET -3.44238 0 0
                        CHANNELS 3 Zrotation Xrotation Yrotation
                        JOINT RightHandRing3
                        {
                          OFFSET -2.3881 0 0
                          CHANNELS 3 Zrotation Xrotation Yrotation
                          End Site
                          {
                            OFFSET -1.857 0 0
                          }
                        }
                      }
                    }
                  }
                  JOINT RightInHandPinky
                  {
                    OFFSET -3.16105 0.469368 -1.20179
                    CHANNELS 3 Zrotation Xrotation Yrotation
                    JOINT RightHandPinky1
                    {
                      OFFSET -4.14105 -0.022105 -1.09053
                      CHANNELS 3 Zrotation Xrotation Yrotation
                      JOINT RightHandPinky2
                      {
                        OFFSET -2.75653 0 0
                        CHANNELS 3 Zrotation Xrotation Yrotation
                        JOINT RightHandPinky3
                        {
                          OFFSET -1.74189 0 0
                          CHANNELS 3 Zrotation Xrotation Yrotation
                          End Site
                          {
                            OFFSET -1.645 0 0
                          }
                        }
                      }
                    }
                  }
                }
              }
            }
          }
          JOINT LeftShoulder
          {
            OFFSET 3.24184 6.89832 -0.0228965
            CHANNELS 3 Zrotation Xrotation Yrotation
            JOINT LeftArm
            {
              OFFSET 12.8376 -0.0155948 -0.0448787
              CHANNELS 3 Zrotation Xrotation Yrotation
              JOINT LeftForeArm
              {
                OFFSET 26.5019 -0.0237061 -0.00609661
                CHANNELS 3 Zrotation Xrotation Yrotation
                JOINT LeftHand
                {
                  OFFSET 25.9931 -0.0767526 0.00928659
                  CHANNELS 3 Zrotation Xrotation Yrotation
                  JOINT LeftHandThumb1
                  {
                    OFFSET 2.48905 0.190105 3.12053
                    CHANNELS 3 Zrotation Xrotation Yrotation
                    JOINT LeftHandThumb2
                    {
                      OFFSET 3.68274 0 0
                      CHANNELS 3 Zrotation Xrotation Yrotation
                      JOINT LeftHandThumb3
                      {
                        OFFSET 2.55832 0 0
                        CHANNELS 3 Zrotation Xrotation Yrotation
                        End Site
                        {
                          OFFSET 2.194 0 0
                        }
                      }
                    }
                  }
                  JOINT LeftInHandIndex
                  {
                    OFFSET 3.22368 0.508421 1.97842
                    CHANNELS 3 Zrotation Xrotation Yrotation
                    JOINT LeftHandIndex1
                    {
                      OFFSET 5.21684 -0.091368 0.999158
                      CHANNELS 3 Zrotation Xrotation Yrotation
                      JOINT LeftHandIndex2
                      {
                        OFFSET 3.61937 0 0
                        CHANNELS 3 Zrotation Xrotation Yrotation
                        JOINT LeftHandIndex3
                        {
                          OFFSET 2.0521 0 0
                          CHANNELS 3 Zrotation Xrotation Yrotation
                          End Site
                          {
                            OFFSET 1.805 0 0
                          }
                        }
                      }
                    }
                  }
                  JOINT LeftInHandMiddle
                  {
                    OFFSET 3.38211 0.517263 0.756737
                    CHANNELS 3 Zrotation Xrotation Yrotation
                    JOINT LeftHandMiddle1
                    {
                      OFFSET 5.17411 -0.084 0.313895
                      CHANNELS 3 Zrotation Xrotation Yrotation
                      JOINT LeftHandMiddle2
                      {
                        OFFSET 3.94947 0 0
                        CHANNELS 3 Zrotation Xrotation Yrotation
                        JOINT LeftHandMiddle3
                        {
                          OFFSET 2.47579 0 0
                          CHANNELS 3 Zrotation Xrotation Yrotation
                          End Site
                          {
                            OFFSET 1.975 0 0
                          }
                        }
                      }
                    }
                  }
                  JOINT LeftInHandRing
                  {
                    OFFSET 3.36516 0.537895 -0.128947
                    CHANNELS 3 Zrotation Xrotation Yrotation
                    JOINT LeftHandRing1
                    {
                      OFFSET 4.63474 -0.022105 -0.478947
                      CHANNELS 3 Zrotation Xrotation Yrotation
                      JOINT LeftHandRing2
                      {
                        OFFSET 3.44238 0 0
                        CHANNELS 3 Zrotation Xrotation Yrotation
                        JOINT LeftHandRing3
                        {
                          OFFSET 2.3881 0 0
                          CHANNELS 3 Zrotation Xrotation Yrotation
                          End Site
                          {
                            OFFSET 1.857 0 0
                          }
                        }
                      }
                    }
                  }
                  JOINT LeftInHandPinky
                  {
                    OFFSET 3.16105 0.469368 -1.20179
                    CHANNELS 3 Zrotation Xrotation Yrotation
                    JOINT LeftHandPinky1
                    {
                      OFFSET 4.14105 -0.022105 -1.09053
                      CHANNELS 3 Zrotation Xrotation Yrotation
                      JOINT LeftHandPinky2
                      {
                        OFFSET 2.75653 0 0
                        CHANNELS 3 Zrotation Xrotation Yrotation
                        JOINT LeftHandPinky3
                        {
                          OFFSET 1.74189 0 0
                          CHANNELS 3 Zrotation Xrotation Yrotation
                          End Site
                          {
                            OFFSET 1.645 0 0
                          }
                        }
                      }
                    }
                  }
                }
              }
            }
          }
        }
      }
    }
  }
}
MOTION
Frames: 2
Frame Time: 0.00833333
1.264793514757204093e+03 8.812424171117801563e+01 1.970287249656146287e+02 2.457921843567264020e+01 1.201426129838921675e+01 -6.856834236715715747e+01 -1.226594659858399439e+01 -5.688528946747397441e+01 -9.370120888616876087e+00 -3.547127444697465659e+00 2.366317840370896874e+01 -1.449189230040074783e+01 9.186400625809529430e+00 8.171145717839531031e+00 2.473387813015033743e+01 1.499108860240946228e+01 -4.767596348660954675e+01 1.495355418999917863e+00 4.832884589879684611e+00 3.112380902932474314e+01 -9.171494888073697394e-02 -1.575408295749311094e+01 -1.073094838922961536e+01 -1.653239341458910161e+01 -5.870508168706110474e+00 1.461759874454254238e+01 1.579324961443851905e+01 -1.097240242082306194e+00 3.673113629625781584e+00 3.858961200910131950e+00 -1.855143479244992566e+00 5.825613669010198059e+00 6.333522947552518545e+00 -2.872429970652458087e-01 -4.970705083768591770e-01 -5.100698555667781964e-01 -3.440211132549066408e-01 -5.264522612472045671e-01 -7.200191910219886360e-01 -6.074613014544483214e+00 -9.361183607115622252e+00 -8.511587335352912120e+00 1.624695450829432009e+00 -1.346463174647088046e+01 2.052820782590173465e+01 7.787308901324094279e+01 -8.710031361389315441e-01 5.365188784603576266e+01 3.251547539615853566e+01 -6.445516208193497221e+01 2.212974241671280140e+01 1.858963008698286146e+01 -2.411540296351482127e+01 -2.572908964916031493e+01 2.818400000000000105e+01 1.072940000000000005e+01 1.915919999999999845e+01 2.475038250082995978e-14 1.925303782517099010e-15 -1.000000000000000000e+01 -1.747246131235875139e-14 -4.633148216850710563e-15 -1.000000000000000000e+01 1.652825152858505888e-15 -3.839572253829114050e-15 -6.407854336792345809e-16 1.998179999999999978e+01 8.718970000000000331e-01 2.396399999999999864e+00 2.400000000000000000e+01 -3.001462167752326695e-15 -4.342545139331092276e-14 2.000000000000000000e+01 -6.312264820288095614e-15 -2.274740790493196525e-14 1.652825152858505888e-15 -3.839572253829114050e-15 -6.407854336792345809e-16 2.000000000000000000e+01 2.531094571710534276e-15 1.322335931218413072e-14 2.400000000000000000e+01 -6.117831284856803623e-15 -2.590021628629052291e-14 2.000000000000000000e+01 -8.020714883728830359e-16 -1.751095261861962418e-14 1.652825152858505888e-15 -3.839572253829114050e-15 -6.407854336792345809e-16 1.997479999999999833e+01 -1.025649999999999951e+00 -2.819380000000000219e+00 2.400000000000000000e+01 -2.893621613838851550e-15 -1.590393572929185871e-14 2.000000000000000000e+01 -2.160887866647483033e-15 -3.250052471485919598e-14 1.652825152858505888e-15 -3.839572253829114050e-15 -6.407854336792345809e-16 1.978150000000000119e+01 -3.009479999999999933e+00 -8.305149999999999366e+00 2.400000000000000000e+01 1.636600397332370663e-14 8.785476972765461436e-17 2.000000000000000000e+01 -5.046463687615007332e-15 3.776369708976869022e-15 1.381073940827420010e+01 -1.421196135417456574e+01 -3.358008838306726318e+01 -2.154076167133818842e+01 3.466649960547265152e+01 -7.726300222800286122e+01 2.665785789715515364e+01 -6.000579720078771118e+01 3.031524305764310867e+01 -1.613265881210229225e+01 -2.557859530462017617e+01 1.196604706146045771e+01 -2.818400000000000105e+01 1.072940000000000005e+01 -1.915919999999999845e+01 1.321559880279653384e-14 1.419810566364862474e-15 1.000000000000000000e+01 -1.616762536448138670e-14 -3.191489638166825094e-15 1.000000000000000000e+01 1.084658217831074157e-15 -4.655723790780462649e-15 1.178155541021474897e-15 -1.998179999999999978e+01 8.718970000000000331e-01 -2.396399999999999864e+00 -2.400000000000000000e+01 5.292494917841799667e-15 2.005934440355008536e-15 -2.000000000000000000e+01 4.786895318114795786e-15 5.216990704415562406e-15 1.084658217831074157e-15 -4.655723790780462649e-15 1.178155541021474897e-15 -2.000000000000000000e+01 4.009212646948640104e-15 2.939811792699342006e-15 -2.400000000000000000e+01 -1.868499755211828811e-15 4.739352447557230224e-15 -2.000000000000000000e+01 -3.667221382526627810e-15 1.663691302972456235e-14 1.084658217831074157e-15 -4.655723790780462649e-15 1.178155541021474897e-15 -1.997479999999999833e+01 -1.025649999999999951e+00 2.819380000000000219e+00 -2.400000000000000000e+01 4.914407488922560933e-15 -3.506087925008864549e-15 -2.000000000000000000e+01 2.964960230989506415e-16 -4.542752692263275481e-16 1.084658217831074157e-15 -4.655723790780462649e-15 1.178155541021474897e-15 -1.978150000000000119e+01 -3.009479999999999933e+00 8.305149999999999366e+00 -2.400000000000000000e+01 -2.118482264089031363e-15 8.935084843535593273e-16 -2.000000000000000000e+01 4.274004714121114653e-15 -6.701781658756414727e-15
1.264856308320804374e+03 8.813125049651162612e+01 1.971528070180297902e+02 2.452974218333825007e+01 1.189151776786558479e+01 -6.873839842408129641e+01 -1.224819202234340665e+01 -5.679802177795646401e+01 -9.298717895553094692e+00 -3.533363789102590413e+00 2.354383508634152022e+01 -1.441793078161655295e+01 9.186860267084641762e+00 8.262743144393981609e+00 2.480960875985137903e+01 1.493730521620153517e+01 -4.757936404591552559e+01 1.538905362075257965e+00 4.770581218234839938e+00 3.119015081067968254e+01 1.382348462656216026e-02 -1.566908382676366607e+01 -1.078901249208815116e+01 -1.648080145871630720e+01 -5.835420829319216907e+00 1.463687404967115491e+01 1.582912937905101280e+01 -1.087923555938384634e+00 3.670911952705128378e+00 3.870524269867805955e+00 -1.839851211842255196e+00 5.818777147488134460e+00 6.353117400706020490e+00 -2.915451907709405432e-01 -4.903347961163747604e-01 -5.144038915849886706e-01 -3.405397593297970760e-01 -5.048090407066343488e-01 -7.500139960532491434e-01 -6.146637712365808248e+00 -9.269582359755595746e+00 -8.589989185739735689e+00 1.571559137553028229e+00 -1.339742354285172077e+01 2.048525419204943532e+01 7.819680455262466978e+01 -8.460678736679370093e-01 5.326921541488972878e+01 3.356112868470102484e+01 -6.407669935095877634e+01 2.345321422505125852e+01 1.855577947894570556e+01 -2.413543595236681227e+01 -2.563696423628908860e+01 2.818400000000000105e+01 1.072940000000000005e+01 1.915919999999999845e+01 2.446132460717799252e-14 1.923908387112465012e-15 -1.000000000000000000e+01 -1.751075056962968493e-14 -4.627885878254411252e-15 -1.000000000000000000e+01 1.668833216428574793e-15 -3.678713706580756852e-15 -6.571256794589117060e-16 1.998179999999999978e+01 8.718970000000000331e-01 2.396399999999999864e+00 2.400000000000000000e+01 -2.749620797225777112e-15 -4.254675900806575775e-14 2.000000000000000000e+01 -6.280585900982433676e-15 -2.267759062627819611e-14 1.668833216428574793e-15 -3.678713706580756852e-15 -6.571256794589117060e-16 2.000000000000000000e+01 2.599605138218569987e-15 1.328469306865279632e-14 2.400000000000000000e+01 -5.992637600190449882e-15 -2.520584935663262739e-14 2.000000000000000000e+01 -5.993767968454305093e-16 -1.737060939332110300e-14 1.668833216428574793e-15 -3.678713706580756852e-15 -6.571256794589117060e-16 1.997479999999999833e+01 -1.025649999999999951e+00 -2.819380000000000219e+00 2.400000000000000000e+01 -2.870786709476934786e-15 -1.584592935551243302e-14 2.000000000000000000e+01 -2.199654569998528896e-15 -3.223303913685374248e-14 1.668833216428574793e-15 -3.678713706580756852e-15 -6.571256794589117060e-16 1.978150000000000119e+01 -3.009479999999999933e+00 -8.305149999999999366e+00 2.400000000000000000e+01 1.624231960734389832e-14 -5.767011326179941426e-19 2.000000000000000000e+01 -5.016706500142463608e-15 3.738055995763113051e-15 1.375790212608411522e+01 -1.417765148506046557e+01 -3.363331702677314183e+01 -2.128162510513195826e+01 3.475199037182412809e+01 -7.741020193631595703e+01 2.640290535666205685e+01 -5.934989721894352499e+01 3.018318627960293554e+01 -1.621249607900112366e+01 -2.565834525713211178e+01 1.203382430059766861e+01 -2.818400000000000105e+01 1.072940000000000005e+01 -1.915919999999999845e+01 1.298979980514693699e-14 1.444914038020344592e-15 1.000000000000000000e+01 -1.602189427858207037e-14 -3.121735029914964567e-15 1.000000000000000000e+01 1.035236569961788428e-15 -4.627328299509936438e-15 1.193267043494910685e-15 -1.998179999999999978e+01 8.718970000000000331e-01 -2.396399999999999864e+00 -2.400000000000000000e+01 5.311453187788816743e-15 2.015467909869691984e-15 -2.000000000000000000e+01 4.836994400375026575e-15 5.143595920342121229e-15 1.035236569961788428e-15 -4.627328299509936438e-15 1.193267043494910685e-15 -2.000000000000000000e+01 3.920389647431520024e-15 2.825892305049144686e-15 -2.400000000000000000e+01 -2.046358438385782990e-15 4.499966972282264712e-15 -2.000000000000000000e+01 -3.605476542644361346e-15 1.662750408780608371e-14 1.035236569961788428e-15 -4.627328299509936438e-15 1.193267043494910685e-15 -1.997479999999999833e+01 -1.025649999999999951e+00 2.819380000000000219e+00 -2.400000000000000000e+01 4.802700470206310435e-15 -3.630505438381128772e-15 -2.000000000000000000e+01 4.152919996897276193e-16 -3.972388623957398333e-16 1.035236569961788428e-15 -4.627328299509936438e-15 1.193267043494910685e-15 -1.978150000000000119e+01 -3.009479999999999933e+00 8.305149999999999366e+00 -2.400000000000000000e+01 -2.046585570994341027e-15 6.614530317819200105e-16 -2.000000000000000000e+01 4.354321709333232487e-15 -6.819130074764885548e-15
